<svg xmlns="http://www.w3.org/2000/svg" viewBox="0 0 164.7 30.22"><defs><style>.cls-1{fill:#3c3d3e;}</style></defs><title>Middel 151</title><g id="Laag_2" data-name="Laag 2"><g id="COR_logo" data-name="COR logo"><path class="cls-1" d="M162.6,6.61a3.51,3.51,0,0,0,1.09-.74,3.43,3.43,0,0,0,.74-1.09,3.38,3.38,0,0,0,.27-1.34,3.35,3.35,0,0,0-.27-1.33A3.39,3.39,0,0,0,163.69,1,3.58,3.58,0,0,0,162.6.27a3.43,3.43,0,0,0-2.68,0,3.59,3.59,0,0,0-1.09.74,3.45,3.45,0,0,0-.74,1.09,3.3,3.3,0,0,0-.27,1.33,3.33,3.33,0,0,0,.27,1.34,3.48,3.48,0,0,0,1.83,1.83,3.43,3.43,0,0,0,2.68,0m-2.5-.41a2.8,2.8,0,0,1-.92-.64,2.94,2.94,0,0,1-.6-.95,3.16,3.16,0,0,1-.22-1.18,3.13,3.13,0,0,1,.22-1.17,2.87,2.87,0,0,1,.6-.94,2.82,2.82,0,0,1,.92-.63,2.9,2.9,0,0,1,1.16-.23,2.86,2.86,0,0,1,1.16.23,2.79,2.79,0,0,1,.91.63,2.91,2.91,0,0,1,.6.94,3.12,3.12,0,0,1,.22,1.17,3.14,3.14,0,0,1-.22,1.18,3,3,0,0,1-.6.95,2.77,2.77,0,0,1-.91.64,2.87,2.87,0,0,1-1.16.23,2.91,2.91,0,0,1-1.16-.23m1.72-2.61a2.09,2.09,0,0,0,.48-.07,1.08,1.08,0,0,0,.39-.18.81.81,0,0,0,.25-.32,1.14,1.14,0,0,0,.09-.48,1,1,0,0,0-.3-.74,1.59,1.59,0,0,0-1.06-.27H160V5.36h.47V3.59h.86l1.1,1.77H163Zm-1.36-.37V1.85h1.1l.35,0a1,1,0,0,1,.31.09.58.58,0,0,1,.22.2.65.65,0,0,1,.09.36.63.63,0,0,1-.13.44.67.67,0,0,1-.33.2,1.7,1.7,0,0,1-.44.05h-1.15Z"/><path class="cls-1" d="M6,20c0,3.84,2.91,5.33,6.22,5.33,2.17,0,5.47-.65,5.47-3.59,0-3.11-4.21-3.64-8.34-4.77S.94,14.14.94,8.73C.94,2.83,6.38,0,11.46,0c5.87,0,11.26,2.63,11.26,9.29h-6c-.2-3.47-2.6-4.36-5.55-4.36-2,0-4.25.85-4.25,3.27,0,2.22,1.34,2.51,8.39,4.36,2,.52,8.34,1.86,8.34,8.4,0,5.29-4.05,9.25-11.69,9.25-6.22,0-12-3.15-12-10.26Z"/><path class="cls-1" d="M38.86,19.31c-.94.85-2.91.89-4.65,1.21s-3.31,1-3.31,3.07,1.61,2.67,3.43,2.67c4.37,0,4.53-3.55,4.53-4.81ZM25.95,15.07c.32-5.37,5-7,9.57-7,4.05,0,8.94.93,8.94,5.94V24.88a11,11,0,0,0,.71,4.65H39.49a8.8,8.8,0,0,1-.39-2,9.2,9.2,0,0,1-6.85,2.59c-3.86,0-6.93-2-6.93-6.26,0-4.73,3.47-5.86,6.93-6.34s6.61-.4,6.61-2.75-1.66-2.83-3.62-2.83c-2.13,0-3.5.89-3.7,3.15Z"/><path class="cls-1" d="M49.42,12.48H46.08V8.65h3.35V7c0-3.67,2.24-6.34,6.81-6.34,1,0,2,.12,3,.16V5.13a17.08,17.08,0,0,0-2-.12C55.64,5,55,5.66,55,7.39V8.65h3.86v3.84H55v17H49.42Z"/><path class="cls-1" d="M74,16.85c-.51-2.91-1.73-4.44-4.45-4.44a4.47,4.47,0,0,0-4.65,4.44Zm-9.09,3.63c.16,3.64,1.89,5.29,5,5.29,2.24,0,4.05-1.41,4.41-2.71h4.92c-1.57,4.93-4.92,7-9.53,7-6.42,0-10.39-4.52-10.39-11,0-6.26,4.21-11,10.39-11,6.93,0,10.27,6,9.88,12.4Z"/><path class="cls-1" d="M84.52,22.94c.12,3.07,2.72,4,5.47,4,2.09,0,4.92-.48,4.92-3.11S91.61,20.76,88.26,20s-6.65-1.9-6.65-5.9c0-4.2,4.05-5.94,7.6-5.94,4.49,0,8.07,1.45,8.35,6.54H94.21C94,12,91.69,11.19,89.48,11.19c-2,0-4.33.56-4.33,2.67,0,2.46,3.54,2.87,6.65,3.64,3.35.77,6.65,1.9,6.65,5.94,0,5-4.53,6.58-8.66,6.58-4.57,0-8.42-1.9-8.62-7.07Z"/><path class="cls-1" d="M115,15.35a4.77,4.77,0,0,0-5-4.16c-4.84,0-6.34,3.92-6.34,8.16,0,3.84,1.69,7.63,5.94,7.63,3.23,0,5.16-1.94,5.59-5.09h3.43c-.75,5.09-3.86,8.12-9,8.12-6.22,0-9.53-4.44-9.53-10.66s3.15-11.19,9.6-11.19c4.61,0,8.31,2.22,8.78,7.19Z"/><path class="cls-1" d="M134.06,18.74c-1.3,1-3.82,1-6.06,1.41s-4.09,1.21-4.09,3.76c0,2.26,1.89,3.07,3.94,3.07,4.41,0,6.22-2.83,6.22-4.73Zm5.43,10.71a4.43,4.43,0,0,1-2.4.57c-1.73,0-2.83-1-2.83-3.23A8.93,8.93,0,0,1,127.09,30c-3.7,0-6.73-1.7-6.73-5.86,0-4.73,3.42-5.74,6.89-6.42,3.7-.73,6.85-.48,6.85-3.07,0-3-2.4-3.47-4.53-3.47-2.83,0-4.92.89-5.08,4h-3.35c.2-5.17,4.09-7,8.62-7,3.66,0,7.64.85,7.64,5.74V24.64c0,1.62,0,2.34,1.06,2.34a2.81,2.81,0,0,0,1-.2Z"/><path class="cls-1" d="M141.69,8.64h3.15V12h.08a7.05,7.05,0,0,1,6.61-3.8c5.35,0,7,3.15,7,7.64V29.53h-3.35V15.39a3.88,3.88,0,0,0-4.13-4.2c-4.05,0-6,2.79-6,6.54v11.8h-3.35Z"/></g></g></svg>